# xmcd
#
# Track frame offsets:
#	150
#	10904
#	26559
#	40232
#	49752
#	58245
#	67425
#	73924
#	85734
#	96082
#	108501
#	119142
#	135717
#
# Disc length: 1956 seconds
#
# Revision: 0
# Processed by: cddbd v1.5.2PL0 Copyright (c) Steve Scherf et al.
# Submitted via: dBpowerAMP V4.0
#
DISCID=c507a20d
DTITLE=Coro La Vetta Vigevano - Melodie di pianura vol.II
DYEAR=1900
DGENRE=
TTITLE0=01-Sul cappello
TTITLE1=02-Monte Canino
TTITLE2=03-Il testamento del Capitano
TTITLE3=04 Ta Pum
TTITLE4=05 Sui monti fioccano
TTITLE5=06 La villanella
TTITLE6=07 Mamma dammi 100 lire
TTITLE7=08 Oh Dio del cielo
TTITLE8=09 Al ciante il Gial
TTITLE9=10 O cebiel cis ciel a Udin
TTITLE10=11 La tradotta
TTITLE11=12 Sul ponte Perati
TTITLE12=13 Benia Calastoria
EXTD=
EXTT0=
EXTT1=
EXTT2=
EXTT3=
EXTT4=
EXTT5=
EXTT6=
EXTT7=
EXTT8=
EXTT9=
EXTT10=
EXTT11=
EXTT12=
PLAYORDER=
